<svg width="119" height="139" viewBox="0 0 119 139" fill="none" xmlns="http://www.w3.org/2000/svg">
<path d="M15.604 66.7492C36.7381 89.0807 79.6598 134.496 82.2744 137.507L100.576 126.969L109.073 104.387L118.224 69.7602L116.263 40.4031L100.576 20.0789L84.8889 2.76572L62.0118 0.507477L25.4084 11.7987L1.22409 6.52945L15.604 25.3481V66.7492Z" fill="#272928" stroke="#171B1A"/>
<path d="M22.2241 11.5075H4.22409L25.5574 33.9213L35.5574 64.5535L50.2241 76.5075L44.2241 48.1167L22.2241 11.5075Z" fill="#252525" stroke="#171B1A"/>
<path d="M71.819 73.1075C73.338 76.117 93.549 105.961 103.465 120.507L114.224 61.8218L93.338 56.5551L71.819 41.5075L64.2241 52.7932C66.1228 58.3107 70.3 70.098 71.819 73.1075Z" fill="#090907" stroke="#171B1A"/>
</svg>
