<svg width="631" height="364" viewBox="0 0 631 364" fill="none" xmlns="http://www.w3.org/2000/svg">
<path d="M501.5 220C496 207.5 484.9 182.3 484.5 181.5L432 67.5L458 58.5L523 206.5L501.5 220Z" fill="#F07748" stroke="black" stroke-width="5"/>
<path d="M116 148C117.2 148.8 134.5 155.333 143 158.5V154L118 143.5L89.5 112.5L5.5 84.5C41.8333 105.333 114.8 147.2 116 148Z" fill="#2A333E"/>
<path d="M337.5 33H320.5L334 42L351.5 39.5L337.5 33Z" fill="#2A333E"/>
<path d="M116 148C117.2 148.8 134.5 155.333 143 158.5V154L118 143.5L89.5 112.5L5.5 84.5C41.8333 105.333 114.8 147.2 116 148Z" stroke="black" stroke-width="5"/>
<path d="M337.5 33H320.5L334 42L351.5 39.5L337.5 33Z" stroke="black" stroke-width="5"/>
<path d="M484 179V170L355.5 121.5L338.5 108L221 145.5L134 121.5L150.5 149L221 170L336 133.5H338.5L396 177L408 250H411.5L445 257L484 179Z" fill="#CFE3E0" stroke="black" stroke-width="5"/>
<path d="M217 126L248 135.5L339.5 106.774L354.5 120.5L484 169.5L480 155.5L408 86.5L464.5 135.5L448 96.5L439 83L408 59L381.5 52C371.167 47.8333 350.2 39.9 349 41.5C347.5 43.5 324 40 320.5 35.5C317 31 275 57 274 56C273.2 55.2 235.667 102.333 217 126Z" fill="#CFE3E0"/>
<path d="M301.5 72L339.5 106.774M339.5 106.774L354.5 120.5L484 169.5L480 155.5L408 86.5L464.5 135.5L448 96.5L439 83L408 59L381.5 52C371.167 47.8333 350.2 39.9 349 41.5C347.5 43.5 324 40 320.5 35.5C317 31 275 57 274 56C273.2 55.2 235.667 102.333 217 126L248 135.5L339.5 106.774Z" stroke="black" stroke-width="5"/>
<path d="M218.5 286.5L222 281L218.5 278L262.5 165L231 177.5L241.5 218.5L231 237.5L140.5 157.5L153 150.5L222 169L283.5 150.5L265 200.5L317 177.5L285.5 150.5L300 145.5L327 172L367 153L380 165L337 185.5L402.5 213.5L403.5 225.5L392.5 224L323.5 194.5L238.25 283.75L241.5 286.5V301.5L238 307H227.5L218.5 301.5L216.5 295L218.5 286.5Z" fill="#F67737"/>
<path d="M222 281L231 280L235 281L238.25 283.75M222 281L218.5 286.5L216.5 295L218.5 301.5L227.5 307H238L241.5 301.5V286.5L238.25 283.75M222 281L218.5 278L262.5 165L231 177.5L241.5 218.5L231 237.5L140.5 157.5L153 150.5L222 169L283.5 150.5L265 200.5L317 177.5L285.5 150.5L300 145.5L327 172L367 153L380 165L337 185.5L402.5 213.5L403.5 225.5L392.5 224L323.5 194.5L238.25 283.75" stroke="#1B1C20" stroke-width="5"/>
<path d="M118.5 144L144 154L151 151L135 121.5L109.5 74H2.5V83L89.5 112.5L118.5 144Z" fill="#FEFCFE" stroke="black" stroke-width="5"/>
<path d="M463 259L459.5 266.5L537 249L563.5 303L568.5 305H576L578.5 300.5L587 237.5L588.5 233L624.5 220.5L618 216.5L603 209L588.5 204.5L571 201H556H548H539.5L526.5 204.5L499 220.5L495.5 223.5L489 228.5L483 234.5L477 241.5L470 249L466.5 253L463 259Z" fill="#CFE3E1" stroke="black" stroke-width="5"/>
<path d="M127 252.5L139 239H142L152 241.5L168.5 251L220 281.5C219.333 283.167 217.9 286.7 217.5 287.5C217.1 288.3 216.333 292.167 216 294L217.5 301.5L227.5 307H237.5L242 301.5V290.5L240 283.5L249 275L323.5 194.5L391 224.5L371 251V270L340.5 332L329.5 338.5L236.5 339L202 319L181 297.5L139 314.5L56.5 343.5L44.5 347L34.5 345.5L26 343.5L19.5 331C18.8333 326.833 17.5 318.2 17.5 317C17.5 315.8 20.5 309.5 22 306.5L127 252.5Z" fill="#283242"/>
<path d="M238.5 266L302 199L258.5 220L238.5 266Z" fill="#283242"/>
<path d="M260.5 168L231.5 177.5L242 216L260.5 168Z" fill="#283242"/>
<path d="M217.5 177.5L167 163L227.5 216L217.5 177.5Z" fill="#283242"/>
<path d="M314 177.5L285 154L267.5 199L314 177.5Z" fill="#283242"/>
<path d="M337 133L299.5 147.5L327.5 171.5L365 154L337 133Z" fill="#283242"/>
<path d="M339 184.5C352.5 178.167 379.7 165.4 380.5 165L396 177.5L401 212.5L339 184.5Z" fill="#283242"/>
<path d="M181 297.5L139 314.5L56.5 343.5L44.5 347L34.5 345.5L26 343.5L19.5 331C18.8333 326.833 17.5 318.2 17.5 317C17.5 315.8 20.5 309.5 22 306.5L127 252.5L139 239H142M181 297.5L155.5 275L142 239M181 297.5L202 319L236.5 339L329.5 338.5L340.5 332L371 270V251L391 224.5L323.5 194.5L249 275L240 283.5L242 290.5V301.5L237.5 307H227.5L217.5 301.5L216 294C216.333 292.167 217.1 288.3 217.5 287.5C217.9 286.7 219.333 283.167 220 281.5L168.5 251L152 241.5L142 239M302 199L238.5 266L258.5 220L302 199ZM231.5 177.5L260.5 168L242 216L231.5 177.5ZM167 163L217.5 177.5L227.5 216L167 163ZM285 154L314 177.5L267.5 199L285 154ZM299.5 147.5L337 133L365 154L327.5 171.5L299.5 147.5ZM380.5 165C379.7 165.4 352.5 178.167 339 184.5L401 212.5L396 177.5L380.5 165Z" stroke="#1B1C20" stroke-width="5"/>
<path d="M134 122L220 146L248 136L215.5 125L127 103.5L134 122Z" fill="#414755"/>
<path d="M395.5 259.5L408.5 249L404.5 227H392L371 249V268.5L339.5 332.5L327 338.5H234.5L200.5 319L189.5 332.5L160.5 298L157.5 290L152 282.5L143 285.5L134 290V302L148 319L180 352.5L189.5 358H200.5L209 345L234.5 361H327L346 355L358.5 342L389 282.5L392 271.5L395.5 259.5Z" fill="#414755"/>
<path d="M134 122L220 146L248 136L215.5 125L127 103.5L134 122Z" stroke="black" stroke-width="5"/>
<path d="M395.5 259.5L408.5 249L404.5 227H392L371 249V268.5L339.5 332.5L327 338.5H234.5L200.5 319L189.5 332.5L160.5 298L157.5 290L152 282.5L143 285.5L134 290V302L148 319L180 352.5L189.5 358H200.5L209 345L234.5 361H327L346 355L358.5 342L389 282.5L392 271.5L395.5 259.5Z" stroke="black" stroke-width="5"/>
<path d="M290.5 250H287.5L278 251L270 255L263.5 259.5L261 264L255.5 271L253.5 277C253 278.333 251.9 281.2 251.5 282C251.1 282.8 251 285.667 251 287V291C251 291.8 252 294.667 252.5 296V302L253.5 306L256.5 310L261 317L267 320L272.5 324L278 327.5L285.5 329H292.5L302.5 326.5L309 323L315 317L320 311.5L323.5 306.5L326 301L327 294.5C327.167 292.5 327.4 288.3 327 287.5C326.6 286.7 326.167 283.5 326 282L324.5 276.5C323.667 274.667 321.8 270.4 321 268C320 265 317.5 264 317.5 263C317.5 262.2 313.5 259.333 311.5 258L308 255L302.5 252L298.5 251L295 250H290.5Z" fill="#6C727B" stroke="black" stroke-width="5"/>
<path d="M248.5 317.5H244H237L233 319.5L230 322.5V327.5L234 332.5L239 335H247.5C248.3 335 250.833 334 252 333.5L256.5 331.5L258 327.5L257.5 324L256.5 320.5L253 318.5L248.5 317.5Z" fill="#414A52" stroke="#272E3C" stroke-width="5"/>
<path d="M425.5 53.5L432.5 68.5L458 57.5L451 42.5L425.5 53.5Z" fill="#283242"/>
<path d="M497 47.5C485.167 54.5 461.3 68.7 460.5 69.5L482.5 119.5H497L534 140.5L497 78.5V47.5Z" fill="#283242"/>
<path d="M493.5 131L469 142.5L481 159L503 148.5L493.5 131Z" fill="#283242"/>
<path d="M425.5 53.5L432.5 68.5L458 57.5L451 42.5L425.5 53.5Z" stroke="black" stroke-width="5"/>
<path d="M497 47.5C485.167 54.5 461.3 68.7 460.5 69.5L482.5 119.5H497L534 140.5L497 78.5V47.5Z" stroke="black" stroke-width="5"/>
<path d="M493.5 131L469 142.5L481 159L503 148.5L493.5 131Z" stroke="black" stroke-width="5"/>
<path d="M527 80L498 45.5V78L534.5 143L545 139L527 80Z" fill="#F07748" stroke="black" stroke-width="5"/>
<path d="M512 85C512.667 81.3333 514.5 73.5 516.5 71.5L529 83L536.5 108.5H525L512 85Z" stroke="black" stroke-width="5"/>
<path d="M415 33C418.333 37.8333 425.3 47.5 426.5 47.5C427.944 47.5 432.167 47.9633 434.265 47.552L438.5 46L443.017 41.9351L443.5 41.5L448.5 36.5V29L443.5 26L440.5 20V15L438.5 9.5L431.5 7H423.5H417.5C415.833 6.33333 412.3 5 411.5 5C410.7 5 408.5 3.33333 407.5 2.5H405H400.5L394.5 5L390 9.5L388.5 18V29L392.5 36.5L397.5 40H407.5L415 33Z" fill="#28314A"/>
<path d="M434.5 47.5C434.425 47.5187 434.347 47.536 434.265 47.552M434.265 47.552C432.167 47.9633 427.944 47.5 426.5 47.5C425.3 47.5 418.333 37.8333 415 33L407.5 40H397.5L392.5 36.5L388.5 29V18L390 9.5L394.5 5L400.5 2.5H405H407.5C408.5 3.33333 410.7 5 411.5 5C412.3 5 415.833 6.33333 417.5 7H423.5H431.5L438.5 9.5L440.5 15V20L443.5 26L448.5 29V36.5L443.5 41.5L443.017 41.9351L438.5 46L434.265 47.552Z" stroke="black" stroke-width="5"/>
<path d="M436.5 38L444 41.5L450 35.5L448.5 26.5L441 25L435.5 26.5L434 31.5L436.5 38Z" fill="#3F4451"/>
<path d="M366 10L363.5 15V21L368.5 25C371.667 25.5 378.2 26.5 379 26.5C380 26.5 388.5 28.5 391 28.5C393 28.5 396.5 27.1667 398 26.5L402 22.5L400 15L391 10L379 7H370L366 10Z" fill="#3F4451"/>
<path d="M436.5 38L444 41.5L450 35.5L448.5 26.5L441 25L435.5 26.5L434 31.5L436.5 38Z" stroke="black" stroke-width="5"/>
<path d="M366 10L363.5 15V21L368.5 25C371.667 25.5 378.2 26.5 379 26.5C380 26.5 388.5 28.5 391 28.5C393 28.5 396.5 27.1667 398 26.5L402 22.5L400 15L391 10L379 7H370L366 10Z" stroke="black" stroke-width="5"/>
<path d="M376 20L371.5 25L365 23C364.5 20.8333 363.5 16.2 363.5 15C363.5 13.8 364.5 9.5 365 7.5H371.5H378V12V16.5L376 20Z" stroke="black" stroke-width="5"/>
<path d="M195 217H199.5L201.5 209L232 236L218 281.5L164.5 247.5H172H178V239.5L182.5 237.5L188 239.5L186 234L182.5 229.5L186 227.5L192.5 229.5L191 224L188 220C188.5 219 189.8 217 191 217H195Z" fill="#1B1A19" stroke="black" stroke-width="5"/>
<path d="M200.5 228L195.5 226.5V230.5L215.5 239V235L200.5 228Z" fill="#F67737"/>
<path d="M212 242L191 235L190 240L212 247.5V242Z" fill="#F67737"/>
<path d="M207 250L186.5 242V247.5L203.5 255H208L207 250Z" fill="#F67737"/>
<path d="M203.5 259L183 250L182 254L203.5 264V259Z" fill="#F67737"/>
<path d="M203.5 217.5C201.833 217.833 198.4 218.9 198 220.5L216 231.5L218 228L203.5 217.5Z" fill="#F67737"/>
<path d="M200.5 228L195.5 226.5V230.5L215.5 239V235L200.5 228Z" stroke="black" stroke-width="0.5"/>
<path d="M212 242L191 235L190 240L212 247.5V242Z" stroke="black" stroke-width="0.5"/>
<path d="M207 250L186.5 242V247.5L203.5 255H208L207 250Z" stroke="black" stroke-width="0.5"/>
<path d="M203.5 259L183 250L182 254L203.5 264V259Z" stroke="black" stroke-width="0.5"/>
<path d="M203.5 217.5C201.833 217.833 198.4 218.9 198 220.5L216 231.5L218 228L203.5 217.5Z" stroke="black" stroke-width="0.5"/>
</svg>
