<svg width="216" height="216" viewBox="0 0 216 216" fill="none" xmlns="http://www.w3.org/2000/svg">
<path d="M108 18L110.722 97.318L143.59 25.0792L115.75 99.401L173.761 45.2391L119.599 103.25L193.921 75.4104L121.682 108.278L201 111L121.682 113.722L193.921 146.59L119.599 118.75L173.761 176.761L115.75 122.599L143.59 196.921L110.722 124.682L108 204L105.278 124.682L72.4104 196.921L100.25 122.599L42.2391 176.761L96.401 118.75L22.0792 146.59L94.318 113.722L15 111L94.318 108.278L22.0792 75.4104L96.401 103.25L42.2391 45.2391L100.25 99.401L72.4104 25.0792L105.278 97.318L108 18Z" fill="black"/>
<path d="M108 20C156.601 20 196 59.3989 196 108C196 156.601 156.601 196 108 196C59.3989 196 20 156.601 20 108C20 59.3989 59.3989 20 108 20ZM108 36.3721C68.441 36.3721 36.3721 68.441 36.3721 108C36.3721 147.559 68.441 179.628 108 179.628C147.559 179.628 179.628 147.559 179.628 108C179.628 68.441 147.559 36.3721 108 36.3721Z" fill="#EB7A48"/>
<path d="M108 0C167.647 0 216 48.3532 216 108C216 167.647 167.647 216 108 216C48.3532 216 0 167.647 0 108C0 48.3532 48.3532 0 108 0ZM108 20.0928C59.4503 20.0928 20.0928 59.4503 20.0928 108C20.0928 156.55 59.4503 195.907 108 195.907C156.55 195.907 195.907 156.55 195.907 108C195.907 59.4503 156.55 20.0928 108 20.0928Z" fill="#191919"/>
<circle cx="108" cy="105" r="55" fill="#50565C"/>
<circle cx="108" cy="105" r="44" fill="#FEFEFD"/>
</svg>
